<?xml version="1.0" encoding="UTF-8"?>
<!DOCTYPE svg PUBLIC "-//W3C//DTD SVG 1.1//EN" "http://www.w3.org/Graphics/SVG/1.1/DTD/svg11.dtd">
<!-- Creator: CorelDRAW -->
<svg xmlns="http://www.w3.org/2000/svg" xml:space="preserve" width="215.9mm" height="279.4mm" version="1.1" style="shape-rendering:geometricPrecision; text-rendering:geometricPrecision; image-rendering:optimizeQuality; fill-rule:evenodd; clip-rule:evenodd"
viewBox="0 0 21590 27940"
 xmlns:xlink="http://www.w3.org/1999/xlink"
 xmlns:xodm="http://www.corel.com/coreldraw/odm/2003">
 <defs>
  <style type="text/css">
   <![CDATA[
    .fil0 {fill:#263138}
    .fil3 {fill:#626C72}
    .fil2 {fill:#75FD03}
    .fil4 {fill:#90A4AE}
    .fil1 {fill:#CED6DA}
   ]]>
  </style>
 </defs>
 <g id="Capa_x0020_1">
  <metadata id="CorelCorpID_0Corel-Layer"/>
  <g id="_3077248166064">
   <path class="fil0" d="M11850.49 12825.82c-121.35,325.26 -646.6,167.38 -515.18,-190.96 121.36,-330.93 639.04,-141.01 515.18,190.96zm-529.25 -1693.57c-54.55,-376.4 489.71,-451.77 540.28,-97.06 55.81,391.53 -494.73,411.37 -540.28,97.06zm-1163.87 948.89l604.3 -9.69c-49.36,630.41 -462.78,1054.89 -1168.48,918.03 -642.58,-124.62 -759.01,-641.71 -759.01,-1354.45 0,-681 115.16,-1241.68 748.36,-1362.18 737.71,-140.39 1129.68,289.88 1179.91,944.31l-550.53 -2.37c-4.96,-170.13 -17.82,-340.92 -116.93,-422.85 -102.08,-84.37 -339.27,-94.87 -465.69,-22.49 -226.27,129.56 -244.45,530.98 -243.81,839.08 0.59,283.27 -45.4,780.36 171.57,912.51 119.72,72.93 358.25,64.34 464.1,-10.95 115.65,-82.25 129.96,-260.33 136.21,-428.95zm2261.02 -1827.71c576.79,-1.74 542.47,-46.24 595.17,134.25l777.66 2622.28 -546.94 0 -825.89 -2756.53zm-5495.07 5220.08l8785.23 0 -0.15 -7407.13 -8785.23 0 0.15 7407.13z"/>
   <path class="fil1" d="M6897.03 8047.37c0.3,-10.5 -2.39,-8.54 26.17,-8.7l8785.38 0c27.93,0.22 26.11,-2.22 26.14,16.12l0.07 7444.45 -8837.81 -9.62 0.05 -7442.25zm1443.11 -1360.19c519.82,-126.48 662.95,683.27 194.12,793.72 -534.08,125.83 -762.88,-655.34 -194.12,-793.72zm-1020.01 805.73c-403.82,0 -525.34,-478.66 -297.45,-706.55 227,-227.01 706.55,-107.71 706.55,297.45 0,233.08 -176.02,409.1 -409.1,409.1zm-979.1 -1097.11l0 9658.63 9949.72 0 0 -9658.63c3.13,-300.19 10.55,-296.14 -291.09,-291.09l-9367.54 0c-288.53,6.65 -293,7.22 -291.09,291.09z"/>
   <path class="fil2" d="M10157.37 12081.14c-6.25,168.62 -20.56,346.7 -136.21,428.95 -105.85,75.29 -344.38,83.88 -464.1,10.95 -216.97,-132.15 -170.98,-629.24 -171.57,-912.51 -0.64,-308.1 17.54,-709.52 243.81,-839.08 126.42,-72.38 363.61,-61.88 465.69,22.49 99.11,81.93 111.97,252.72 116.93,422.85l550.53 2.37c-50.23,-654.43 -442.2,-1084.7 -1179.91,-944.31 -633.2,120.5 -748.36,681.18 -748.36,1362.18 0,712.74 116.43,1229.83 759.01,1354.45 705.7,136.86 1119.12,-287.62 1168.48,-918.03l-604.3 9.69z"/>
   <path class="fil2" d="M13013.56 10387.68c-52.7,-180.49 -18.38,-135.99 -595.17,-134.25l825.89 2756.53 546.94 0 -777.66 -2622.28z"/>
   <path class="fil3" d="M6923.17 8066.38l8785.23 0 0.15 7407.13 -8785.23 0 -0.15 -7407.13zm-26.22 7423l8837.81 9.62c-0.01,-2483.96 -0.03,-4960.25 -0.04,-7444.21 -0.13,-18.45 1.84,-15.97 -26.17,-16.36 -2928.46,0 -5856.92,0 -8785.38,0 -28.52,0.4 -25.96,-1.55 -26.17,8.7l-0.05 7442.25z"/>
   <path class="fil4" d="M7320.1 7492.67c233.08,0 409.1,-176.02 409.1,-409.1 0,-405.16 -479.55,-524.46 -706.55,-297.45 -227.89,227.89 -106.37,706.55 297.45,706.55z"/>
   <path class="fil4" d="M8340.11 6686.94c-568.76,138.38 -339.96,919.55 194.12,793.72 468.83,-110.45 325.7,-920.2 -194.12,-793.72z"/>
   <path class="fil2" d="M11321.24 11132.25c45.55,314.31 596.09,294.47 540.28,-97.06 -50.57,-354.71 -594.83,-279.34 -540.28,97.06z"/>
   <path class="fil2" d="M11850.49 12825.82c123.86,-331.97 -393.82,-521.89 -515.18,-190.96 -131.42,358.34 393.83,516.22 515.18,190.96z"/>
  </g>
 </g>
</svg>
